<svg width="46" height="46" viewBox="0 0 46 46" fill="none" xmlns="http://www.w3.org/2000/svg">
<g clip-path="url(#clip0_37_2962)">
<circle cx="23" cy="23" r="23" fill="#E6FFE6"/>
<path d="M36.3334 32.3333H9.66669V35H36.3334V32.3333ZM12.3334 27C12.3334 27.6667 12.6 28.3333 13.1334 28.8667C13.6667 29.4 14.3334 29.6667 15 29.6667V15C14.3334 15 13.6667 15.2667 13.1334 15.8C12.6 16.3333 12.3334 17 12.3334 17.6667V27ZM25 15H21C21 14.4667 21.1334 13.9333 21.5334 13.5333C21.9334 13.1333 22.3334 13 23 13C23.5334 13 24.0667 13.1333 24.4667 13.5333C24.7334 13.9333 25 14.4667 25 15ZM16.3334 15V29.6667H29.6667V15H27C27 13.9333 26.6 13 25.8 12.2C25 11.4 24.0667 11 23 11C21.9334 11 21 11.4 20.2 12.2C19.4 13 19 13.9333 19 15H16.3334ZM31 29.6667C31.6667 29.6667 32.3334 29.4 32.8667 28.8667C33.4 28.3333 33.6667 27.6667 33.6667 27V17.6667C33.6667 17 33.4 16.3333 32.8667 15.8C32.3334 15.2667 31.6667 15 31 15V29.6667Z" fill="#04D800"/>
</g>
<defs>
<clipPath id="clip0_37_2962">
<rect width="46" height="46" fill="white"/>
</clipPath>
</defs>
</svg>
