<svg width="46" height="46" viewBox="0 0 46 46" fill="none" xmlns="http://www.w3.org/2000/svg">
<g clip-path="url(#clip0_37_2942)">
<circle cx="23" cy="23" r="23" fill="#FFF7E9"/>
<path d="M14.8333 13H35.8333V27H14.8333V13ZM25.3333 16.5C26.2615 16.5 27.1518 16.8687 27.8082 17.5251C28.4645 18.1815 28.8333 19.0717 28.8333 20C28.8333 20.9283 28.4645 21.8185 27.8082 22.4749C27.1518 23.1313 26.2615 23.5 25.3333 23.5C24.405 23.5 23.5148 23.1313 22.8584 22.4749C22.202 21.8185 21.8333 20.9283 21.8333 20C21.8333 19.0717 22.202 18.1815 22.8584 17.5251C23.5148 16.8687 24.405 16.5 25.3333 16.5ZM19.5 15.3333C19.5 15.9522 19.2541 16.5457 18.8165 16.9832C18.379 17.4208 17.7855 17.6667 17.1666 17.6667V22.3333C17.7855 22.3333 18.379 22.5792 18.8165 23.0168C19.2541 23.4543 19.5 24.0478 19.5 24.6667H31.1666C31.1666 24.0478 31.4125 23.4543 31.85 23.0168C32.2876 22.5792 32.8811 22.3333 33.5 22.3333V17.6667C32.8811 17.6667 32.2876 17.4208 31.85 16.9832C31.4125 16.5457 31.1666 15.9522 31.1666 15.3333H19.5ZM10.1666 17.6667H12.5V29.3333H31.1666V31.6667H10.1666V17.6667Z" fill="#FFA800"/>
</g>
<defs>
<clipPath id="clip0_37_2942">
<rect width="46" height="46" fill="white"/>
</clipPath>
</defs>
</svg>
