<svg width="24" height="24" viewBox="0 0 24 24" fill="none" xmlns="http://www.w3.org/2000/svg">
<g clip-path="url(#clip0_136171_3688)">
<path d="M12.8577 15.4285L7.71484 16.3543L8.57199 11.1428L18.3948 1.35425C18.5542 1.19357 18.7438 1.06604 18.9527 0.979008C19.1616 0.891976 19.3857 0.847168 19.612 0.847168C19.8383 0.847168 20.0624 0.891976 20.2713 0.979008C20.4802 1.06604 20.6698 1.19357 20.8291 1.35425L22.6463 3.17139C22.8069 3.33076 22.9345 3.52036 23.0215 3.72926C23.1085 3.93816 23.1534 4.16223 23.1534 4.38854C23.1534 4.61484 23.1085 4.83891 23.0215 5.04781C22.9345 5.25671 22.8069 5.44631 22.6463 5.60568L12.8577 15.4285Z" stroke="#001AFF" stroke-width="1.71429" stroke-linecap="round" stroke-linejoin="round"/>
<path d="M20.5717 16.2859V21.4287C20.5717 21.8834 20.3911 22.3194 20.0696 22.6409C19.7481 22.9624 19.3121 23.143 18.8574 23.143H2.57171C2.11705 23.143 1.68102 22.9624 1.35952 22.6409C1.03803 22.3194 0.857422 21.8834 0.857422 21.4287V5.143C0.857422 4.68834 1.03803 4.2523 1.35952 3.93081C1.68102 3.60932 2.11705 3.42871 2.57171 3.42871H7.71457" stroke="#001AFF" stroke-width="1.71429" stroke-linecap="round" stroke-linejoin="round"/>
</g>
<defs>
<clipPath id="clip0_136171_3688">
<rect width="24" height="24" fill="white"/>
</clipPath>
</defs>
</svg>
